<mxfile host="app.diagrams.net" agent="Mozilla/5.0 (Windows NT 10.0; Win64; x64) AppleWebKit/537.36 (KHTML, like Gecko) Chrome/137.0.0.0 Safari/537.36" version="27.1.4">
  <diagram name="Page-1" id="crMJTFa3v-iSGQ_MWncB">
    <mxGraphModel dx="2547" dy="1547" grid="0" gridSize="10" guides="1" tooltips="1" connect="1" arrows="1" fold="1" page="0" pageScale="1" pageWidth="850" pageHeight="1100" math="0" shadow="0">
      <root>
        <mxCell id="0" />
        <mxCell id="1" parent="0" />
        <mxCell id="n9ktirdGW9ZnqD2EBJkT-21" style="edgeStyle=none;curved=1;rounded=0;orthogonalLoop=1;jettySize=auto;html=1;exitX=0.5;exitY=1;exitDx=0;exitDy=0;entryX=0.5;entryY=0;entryDx=0;entryDy=0;fontSize=12;startSize=8;endSize=8;" edge="1" parent="1" source="n9ktirdGW9ZnqD2EBJkT-1" target="n9ktirdGW9ZnqD2EBJkT-2">
          <mxGeometry relative="1" as="geometry" />
        </mxCell>
        <mxCell id="n9ktirdGW9ZnqD2EBJkT-1" value="1" style="ellipse;whiteSpace=wrap;html=1;aspect=fixed;" vertex="1" parent="1">
          <mxGeometry x="-20" y="-45" width="77" height="77" as="geometry" />
        </mxCell>
        <mxCell id="n9ktirdGW9ZnqD2EBJkT-2" value="2" style="ellipse;whiteSpace=wrap;html=1;aspect=fixed;" vertex="1" parent="1">
          <mxGeometry x="-20" y="79" width="77" height="77" as="geometry" />
        </mxCell>
        <mxCell id="n9ktirdGW9ZnqD2EBJkT-3" value="3" style="ellipse;whiteSpace=wrap;html=1;aspect=fixed;" vertex="1" parent="1">
          <mxGeometry x="101" y="225" width="77" height="77" as="geometry" />
        </mxCell>
        <mxCell id="n9ktirdGW9ZnqD2EBJkT-4" value="4" style="ellipse;whiteSpace=wrap;html=1;aspect=fixed;" vertex="1" parent="1">
          <mxGeometry x="223" y="373" width="77" height="77" as="geometry" />
        </mxCell>
        <mxCell id="n9ktirdGW9ZnqD2EBJkT-5" value="5" style="ellipse;whiteSpace=wrap;html=1;aspect=fixed;" vertex="1" parent="1">
          <mxGeometry x="347" y="519" width="77" height="77" as="geometry" />
        </mxCell>
        <mxCell id="n9ktirdGW9ZnqD2EBJkT-6" value="6" style="ellipse;whiteSpace=wrap;html=1;aspect=fixed;" vertex="1" parent="1">
          <mxGeometry x="223" y="641" width="77" height="77" as="geometry" />
        </mxCell>
        <mxCell id="n9ktirdGW9ZnqD2EBJkT-7" value="7" style="ellipse;whiteSpace=wrap;html=1;aspect=fixed;" vertex="1" parent="1">
          <mxGeometry x="98" y="764" width="77" height="77" as="geometry" />
        </mxCell>
        <mxCell id="n9ktirdGW9ZnqD2EBJkT-8" value="8" style="ellipse;whiteSpace=wrap;html=1;aspect=fixed;" vertex="1" parent="1">
          <mxGeometry x="-28" y="881" width="77" height="77" as="geometry" />
        </mxCell>
        <mxCell id="n9ktirdGW9ZnqD2EBJkT-9" value="9" style="ellipse;whiteSpace=wrap;html=1;aspect=fixed;" vertex="1" parent="1">
          <mxGeometry x="-155" y="764" width="77" height="77" as="geometry" />
        </mxCell>
        <mxCell id="n9ktirdGW9ZnqD2EBJkT-10" value="11" style="ellipse;whiteSpace=wrap;html=1;aspect=fixed;" vertex="1" parent="1">
          <mxGeometry x="-283" y="646" width="77" height="77" as="geometry" />
        </mxCell>
        <mxCell id="n9ktirdGW9ZnqD2EBJkT-12" value="12" style="ellipse;whiteSpace=wrap;html=1;aspect=fixed;" vertex="1" parent="1">
          <mxGeometry x="-408" y="528" width="77" height="77" as="geometry" />
        </mxCell>
        <mxCell id="n9ktirdGW9ZnqD2EBJkT-13" value="10" style="ellipse;whiteSpace=wrap;html=1;aspect=fixed;" vertex="1" parent="1">
          <mxGeometry x="-141" y="225" width="77" height="77" as="geometry" />
        </mxCell>
        <mxCell id="n9ktirdGW9ZnqD2EBJkT-22" value="" style="endArrow=none;html=1;rounded=0;fontSize=12;startSize=8;endSize=8;curved=1;entryX=1;entryY=0.5;entryDx=0;entryDy=0;" edge="1" parent="1" target="n9ktirdGW9ZnqD2EBJkT-2">
          <mxGeometry width="50" height="50" relative="1" as="geometry">
            <mxPoint x="142" y="118" as="sourcePoint" />
            <mxPoint x="210" y="321" as="targetPoint" />
          </mxGeometry>
        </mxCell>
        <mxCell id="n9ktirdGW9ZnqD2EBJkT-55" value="True" style="edgeLabel;html=1;align=center;verticalAlign=middle;resizable=0;points=[];fontSize=12;" vertex="1" connectable="0" parent="n9ktirdGW9ZnqD2EBJkT-22">
          <mxGeometry x="0.2551" y="-2" relative="1" as="geometry">
            <mxPoint x="1" as="offset" />
          </mxGeometry>
        </mxCell>
        <mxCell id="n9ktirdGW9ZnqD2EBJkT-24" value="" style="endArrow=classic;html=1;rounded=0;fontSize=12;startSize=8;endSize=8;curved=1;entryX=0.5;entryY=0;entryDx=0;entryDy=0;" edge="1" parent="1" target="n9ktirdGW9ZnqD2EBJkT-3">
          <mxGeometry width="50" height="50" relative="1" as="geometry">
            <mxPoint x="142" y="118" as="sourcePoint" />
            <mxPoint x="201" y="210" as="targetPoint" />
          </mxGeometry>
        </mxCell>
        <mxCell id="n9ktirdGW9ZnqD2EBJkT-26" value="" style="endArrow=none;html=1;rounded=0;fontSize=12;startSize=8;endSize=8;curved=1;entryX=1;entryY=0.5;entryDx=0;entryDy=0;" edge="1" parent="1">
          <mxGeometry width="50" height="50" relative="1" as="geometry">
            <mxPoint x="-20" y="116.5" as="sourcePoint" />
            <mxPoint x="-105" y="116.5" as="targetPoint" />
          </mxGeometry>
        </mxCell>
        <mxCell id="n9ktirdGW9ZnqD2EBJkT-56" value="False" style="edgeLabel;html=1;align=center;verticalAlign=middle;resizable=0;points=[];fontSize=12;" vertex="1" connectable="0" parent="n9ktirdGW9ZnqD2EBJkT-26">
          <mxGeometry x="-0.0745" y="-6" relative="1" as="geometry">
            <mxPoint x="1" as="offset" />
          </mxGeometry>
        </mxCell>
        <mxCell id="n9ktirdGW9ZnqD2EBJkT-27" value="" style="endArrow=none;html=1;rounded=0;fontSize=12;startSize=8;endSize=8;curved=1;entryX=1;entryY=0.5;entryDx=0;entryDy=0;" edge="1" parent="1">
          <mxGeometry width="50" height="50" relative="1" as="geometry">
            <mxPoint x="-103" y="-3" as="sourcePoint" />
            <mxPoint x="-103" y="116.5" as="targetPoint" />
          </mxGeometry>
        </mxCell>
        <mxCell id="n9ktirdGW9ZnqD2EBJkT-28" value="" style="endArrow=classic;html=1;rounded=0;fontSize=12;startSize=8;endSize=8;curved=1;entryX=0;entryY=0.5;entryDx=0;entryDy=0;" edge="1" parent="1" target="n9ktirdGW9ZnqD2EBJkT-1">
          <mxGeometry width="50" height="50" relative="1" as="geometry">
            <mxPoint x="-105" y="-6" as="sourcePoint" />
            <mxPoint x="133" y="422" as="targetPoint" />
          </mxGeometry>
        </mxCell>
        <mxCell id="n9ktirdGW9ZnqD2EBJkT-29" value="" style="endArrow=none;html=1;rounded=0;fontSize=12;startSize=8;endSize=8;curved=1;entryX=1;entryY=0.5;entryDx=0;entryDy=0;" edge="1" parent="1">
          <mxGeometry width="50" height="50" relative="1" as="geometry">
            <mxPoint x="263" y="265" as="sourcePoint" />
            <mxPoint x="178" y="265" as="targetPoint" />
          </mxGeometry>
        </mxCell>
        <mxCell id="n9ktirdGW9ZnqD2EBJkT-30" value="" style="endArrow=classic;html=1;rounded=0;fontSize=12;startSize=8;endSize=8;curved=1;entryX=0.5;entryY=0;entryDx=0;entryDy=0;" edge="1" parent="1">
          <mxGeometry width="50" height="50" relative="1" as="geometry">
            <mxPoint x="263" y="265" as="sourcePoint" />
            <mxPoint x="261" y="372" as="targetPoint" />
          </mxGeometry>
        </mxCell>
        <mxCell id="n9ktirdGW9ZnqD2EBJkT-33" value="" style="endArrow=none;html=1;rounded=0;fontSize=12;startSize=8;endSize=8;curved=1;entryX=1;entryY=0.5;entryDx=0;entryDy=0;" edge="1" parent="1">
          <mxGeometry width="50" height="50" relative="1" as="geometry">
            <mxPoint x="473" y="412" as="sourcePoint" />
            <mxPoint x="300" y="412" as="targetPoint" />
          </mxGeometry>
        </mxCell>
        <mxCell id="n9ktirdGW9ZnqD2EBJkT-60" value="True" style="edgeLabel;html=1;align=center;verticalAlign=middle;resizable=0;points=[];fontSize=12;" vertex="1" connectable="0" parent="n9ktirdGW9ZnqD2EBJkT-33">
          <mxGeometry x="0.3725" y="2" relative="1" as="geometry">
            <mxPoint as="offset" />
          </mxGeometry>
        </mxCell>
        <mxCell id="n9ktirdGW9ZnqD2EBJkT-34" value="" style="endArrow=classic;html=1;rounded=0;fontSize=12;startSize=8;endSize=8;curved=1;entryX=0.5;entryY=0;entryDx=0;entryDy=0;" edge="1" parent="1">
          <mxGeometry width="50" height="50" relative="1" as="geometry">
            <mxPoint x="473" y="559" as="sourcePoint" />
            <mxPoint x="424" y="559" as="targetPoint" />
          </mxGeometry>
        </mxCell>
        <mxCell id="n9ktirdGW9ZnqD2EBJkT-35" value="" style="endArrow=none;html=1;rounded=0;fontSize=12;startSize=8;endSize=8;curved=1;" edge="1" parent="1">
          <mxGeometry width="50" height="50" relative="1" as="geometry">
            <mxPoint x="387" y="596" as="sourcePoint" />
            <mxPoint x="387" y="683" as="targetPoint" />
          </mxGeometry>
        </mxCell>
        <mxCell id="n9ktirdGW9ZnqD2EBJkT-36" value="" style="endArrow=classic;html=1;rounded=0;fontSize=12;startSize=8;endSize=8;curved=1;entryX=1;entryY=0.5;entryDx=0;entryDy=0;" edge="1" parent="1" target="n9ktirdGW9ZnqD2EBJkT-6">
          <mxGeometry width="50" height="50" relative="1" as="geometry">
            <mxPoint x="389" y="680" as="sourcePoint" />
            <mxPoint x="393" y="529" as="targetPoint" />
          </mxGeometry>
        </mxCell>
        <mxCell id="n9ktirdGW9ZnqD2EBJkT-37" value="" style="endArrow=none;html=1;rounded=0;fontSize=12;startSize=8;endSize=8;curved=1;" edge="1" parent="1">
          <mxGeometry width="50" height="50" relative="1" as="geometry">
            <mxPoint x="262" y="718" as="sourcePoint" />
            <mxPoint x="262" y="805" as="targetPoint" />
          </mxGeometry>
        </mxCell>
        <mxCell id="n9ktirdGW9ZnqD2EBJkT-73" value="True" style="edgeLabel;html=1;align=center;verticalAlign=middle;resizable=0;points=[];fontSize=12;" vertex="1" connectable="0" parent="n9ktirdGW9ZnqD2EBJkT-37">
          <mxGeometry x="-0.4636" y="3" relative="1" as="geometry">
            <mxPoint y="-1" as="offset" />
          </mxGeometry>
        </mxCell>
        <mxCell id="n9ktirdGW9ZnqD2EBJkT-38" value="" style="endArrow=classic;html=1;rounded=0;fontSize=12;startSize=8;endSize=8;curved=1;entryX=1;entryY=0.5;entryDx=0;entryDy=0;" edge="1" parent="1">
          <mxGeometry width="50" height="50" relative="1" as="geometry">
            <mxPoint x="264" y="802" as="sourcePoint" />
            <mxPoint x="175" y="802" as="targetPoint" />
          </mxGeometry>
        </mxCell>
        <mxCell id="n9ktirdGW9ZnqD2EBJkT-39" value="" style="endArrow=none;html=1;rounded=0;fontSize=12;startSize=8;endSize=8;curved=1;" edge="1" parent="1">
          <mxGeometry width="50" height="50" relative="1" as="geometry">
            <mxPoint x="135" y="840" as="sourcePoint" />
            <mxPoint x="135" y="927" as="targetPoint" />
          </mxGeometry>
        </mxCell>
        <mxCell id="n9ktirdGW9ZnqD2EBJkT-113" value="True" style="edgeLabel;html=1;align=center;verticalAlign=middle;resizable=0;points=[];fontSize=12;" vertex="1" connectable="0" parent="n9ktirdGW9ZnqD2EBJkT-39">
          <mxGeometry x="-0.5402" y="-4" relative="1" as="geometry">
            <mxPoint as="offset" />
          </mxGeometry>
        </mxCell>
        <mxCell id="n9ktirdGW9ZnqD2EBJkT-40" value="" style="endArrow=classic;html=1;rounded=0;fontSize=12;startSize=8;endSize=8;curved=1;entryX=1;entryY=0.5;entryDx=0;entryDy=0;" edge="1" parent="1">
          <mxGeometry width="50" height="50" relative="1" as="geometry">
            <mxPoint x="137" y="924" as="sourcePoint" />
            <mxPoint x="48" y="924" as="targetPoint" />
          </mxGeometry>
        </mxCell>
        <mxCell id="n9ktirdGW9ZnqD2EBJkT-42" value="" style="endArrow=none;html=1;rounded=0;fontSize=12;startSize=8;endSize=8;curved=1;entryX=0;entryY=0.5;entryDx=0;entryDy=0;" edge="1" parent="1" target="n9ktirdGW9ZnqD2EBJkT-8">
          <mxGeometry width="50" height="50" relative="1" as="geometry">
            <mxPoint x="-246" y="920" as="sourcePoint" />
            <mxPoint x="-107" y="958" as="targetPoint" />
          </mxGeometry>
        </mxCell>
        <mxCell id="n9ktirdGW9ZnqD2EBJkT-129" value="No" style="edgeLabel;html=1;align=center;verticalAlign=middle;resizable=0;points=[];fontSize=12;" vertex="1" connectable="0" parent="n9ktirdGW9ZnqD2EBJkT-42">
          <mxGeometry x="0.4051" y="-2" relative="1" as="geometry">
            <mxPoint as="offset" />
          </mxGeometry>
        </mxCell>
        <mxCell id="n9ktirdGW9ZnqD2EBJkT-44" value="" style="endArrow=classic;html=1;rounded=0;fontSize=12;startSize=8;endSize=8;curved=1;entryX=0.5;entryY=1;entryDx=0;entryDy=0;" edge="1" parent="1">
          <mxGeometry width="50" height="50" relative="1" as="geometry">
            <mxPoint x="-245" y="919" as="sourcePoint" />
            <mxPoint x="-245.09" y="725.9999999999998" as="targetPoint" />
          </mxGeometry>
        </mxCell>
        <mxCell id="n9ktirdGW9ZnqD2EBJkT-50" value="" style="endArrow=classic;html=1;rounded=0;fontSize=12;startSize=8;endSize=8;curved=1;entryX=0.5;entryY=1;entryDx=0;entryDy=0;" edge="1" parent="1">
          <mxGeometry width="50" height="50" relative="1" as="geometry">
            <mxPoint x="-111" y="679" as="sourcePoint" />
            <mxPoint x="-206" y="679" as="targetPoint" />
          </mxGeometry>
        </mxCell>
        <mxCell id="n9ktirdGW9ZnqD2EBJkT-51" value="" style="endArrow=none;html=1;rounded=0;fontSize=12;startSize=8;endSize=8;curved=1;entryX=0;entryY=0.5;entryDx=0;entryDy=0;" edge="1" parent="1">
          <mxGeometry width="50" height="50" relative="1" as="geometry">
            <mxPoint x="-374" y="684" as="sourcePoint" />
            <mxPoint x="-283" y="684" as="targetPoint" />
          </mxGeometry>
        </mxCell>
        <mxCell id="n9ktirdGW9ZnqD2EBJkT-52" value="" style="endArrow=classic;html=1;rounded=0;fontSize=12;startSize=8;endSize=8;curved=1;entryX=0.5;entryY=1;entryDx=0;entryDy=0;" edge="1" parent="1">
          <mxGeometry width="50" height="50" relative="1" as="geometry">
            <mxPoint x="-371" y="685" as="sourcePoint" />
            <mxPoint x="-371" y="605" as="targetPoint" />
          </mxGeometry>
        </mxCell>
        <mxCell id="n9ktirdGW9ZnqD2EBJkT-63" value="" style="endArrow=none;html=1;rounded=0;fontSize=12;startSize=8;endSize=8;curved=1;entryX=0;entryY=0.5;entryDx=0;entryDy=0;" edge="1" parent="1">
          <mxGeometry width="50" height="50" relative="1" as="geometry">
            <mxPoint x="137" y="413" as="sourcePoint" />
            <mxPoint x="223" y="413" as="targetPoint" />
          </mxGeometry>
        </mxCell>
        <mxCell id="n9ktirdGW9ZnqD2EBJkT-64" value="False" style="edgeLabel;html=1;align=center;verticalAlign=middle;resizable=0;points=[];fontSize=12;" vertex="1" connectable="0" parent="n9ktirdGW9ZnqD2EBJkT-63">
          <mxGeometry x="-0.0775" y="5" relative="1" as="geometry">
            <mxPoint as="offset" />
          </mxGeometry>
        </mxCell>
        <mxCell id="n9ktirdGW9ZnqD2EBJkT-65" value="" style="endArrow=classic;html=1;rounded=0;fontSize=12;startSize=8;endSize=8;curved=1;entryX=0.5;entryY=1;entryDx=0;entryDy=0;" edge="1" parent="1">
          <mxGeometry width="50" height="50" relative="1" as="geometry">
            <mxPoint x="138" y="412" as="sourcePoint" />
            <mxPoint x="138" y="302" as="targetPoint" />
          </mxGeometry>
        </mxCell>
        <mxCell id="n9ktirdGW9ZnqD2EBJkT-69" value="" style="endArrow=classic;html=1;rounded=0;fontSize=12;startSize=8;endSize=8;curved=1;entryX=0;entryY=0.5;entryDx=0;entryDy=0;" edge="1" parent="1">
          <mxGeometry width="50" height="50" relative="1" as="geometry">
            <mxPoint x="262" y="557" as="sourcePoint" />
            <mxPoint x="347" y="556.5" as="targetPoint" />
          </mxGeometry>
        </mxCell>
        <mxCell id="n9ktirdGW9ZnqD2EBJkT-70" value="" style="endArrow=none;html=1;rounded=0;fontSize=12;startSize=8;endSize=8;curved=1;entryX=0.5;entryY=0;entryDx=0;entryDy=0;" edge="1" parent="1">
          <mxGeometry width="50" height="50" relative="1" as="geometry">
            <mxPoint x="261" y="555.5" as="sourcePoint" />
            <mxPoint x="260.5" y="641" as="targetPoint" />
          </mxGeometry>
        </mxCell>
        <mxCell id="n9ktirdGW9ZnqD2EBJkT-75" value="False" style="edgeLabel;html=1;align=center;verticalAlign=middle;resizable=0;points=[];fontSize=12;" vertex="1" connectable="0" parent="n9ktirdGW9ZnqD2EBJkT-70">
          <mxGeometry x="0.423" relative="1" as="geometry">
            <mxPoint y="1" as="offset" />
          </mxGeometry>
        </mxCell>
        <mxCell id="n9ktirdGW9ZnqD2EBJkT-84" value="" style="endArrow=none;html=1;rounded=0;fontSize=12;startSize=8;endSize=8;curved=1;exitX=1;exitY=0.5;exitDx=0;exitDy=0;" edge="1" parent="1" source="n9ktirdGW9ZnqD2EBJkT-9">
          <mxGeometry width="50" height="50" relative="1" as="geometry">
            <mxPoint x="-17" y="484" as="sourcePoint" />
            <mxPoint x="-15" y="803" as="targetPoint" />
          </mxGeometry>
        </mxCell>
        <mxCell id="n9ktirdGW9ZnqD2EBJkT-85" value="" style="endArrow=none;html=1;rounded=0;fontSize=12;startSize=8;endSize=8;curved=1;exitX=0;exitY=0;exitDx=0;exitDy=0;" edge="1" parent="1" source="n9ktirdGW9ZnqD2EBJkT-8">
          <mxGeometry width="50" height="50" relative="1" as="geometry">
            <mxPoint x="9.39" y="882" as="sourcePoint" />
            <mxPoint x="-17" y="804" as="targetPoint" />
          </mxGeometry>
        </mxCell>
        <mxCell id="n9ktirdGW9ZnqD2EBJkT-127" value="Yes" style="edgeLabel;html=1;align=center;verticalAlign=middle;resizable=0;points=[];fontSize=12;" vertex="1" connectable="0" parent="n9ktirdGW9ZnqD2EBJkT-85">
          <mxGeometry x="-0.3999" y="2" relative="1" as="geometry">
            <mxPoint as="offset" />
          </mxGeometry>
        </mxCell>
        <mxCell id="n9ktirdGW9ZnqD2EBJkT-89" value="" style="endArrow=none;html=1;rounded=0;fontSize=12;startSize=8;endSize=8;curved=1;" edge="1" parent="1">
          <mxGeometry width="50" height="50" relative="1" as="geometry">
            <mxPoint x="14" y="667" as="sourcePoint" />
            <mxPoint x="14" y="266" as="targetPoint" />
          </mxGeometry>
        </mxCell>
        <mxCell id="n9ktirdGW9ZnqD2EBJkT-90" value="" style="endArrow=classic;html=1;rounded=0;fontSize=12;startSize=8;endSize=8;curved=1;entryX=1;entryY=0.5;entryDx=0;entryDy=0;" edge="1" parent="1" target="n9ktirdGW9ZnqD2EBJkT-13">
          <mxGeometry width="50" height="50" relative="1" as="geometry">
            <mxPoint x="17" y="264" as="sourcePoint" />
            <mxPoint x="-55" y="268" as="targetPoint" />
          </mxGeometry>
        </mxCell>
        <mxCell id="n9ktirdGW9ZnqD2EBJkT-91" value="" style="endArrow=none;html=1;rounded=0;fontSize=12;startSize=8;endSize=8;curved=1;" edge="1" parent="1">
          <mxGeometry width="50" height="50" relative="1" as="geometry">
            <mxPoint x="-102" y="172.5" as="sourcePoint" />
            <mxPoint x="-242" y="172" as="targetPoint" />
          </mxGeometry>
        </mxCell>
        <mxCell id="n9ktirdGW9ZnqD2EBJkT-92" value="" style="endArrow=none;html=1;rounded=0;fontSize=12;startSize=8;endSize=8;curved=1;" edge="1" parent="1">
          <mxGeometry width="50" height="50" relative="1" as="geometry">
            <mxPoint x="-242" y="-130" as="sourcePoint" />
            <mxPoint x="-242" y="175" as="targetPoint" />
          </mxGeometry>
        </mxCell>
        <mxCell id="n9ktirdGW9ZnqD2EBJkT-93" value="" style="endArrow=none;html=1;rounded=0;fontSize=12;startSize=8;endSize=8;curved=1;" edge="1" parent="1">
          <mxGeometry width="50" height="50" relative="1" as="geometry">
            <mxPoint x="-243" y="-129" as="sourcePoint" />
            <mxPoint x="18" y="-129" as="targetPoint" />
          </mxGeometry>
        </mxCell>
        <mxCell id="n9ktirdGW9ZnqD2EBJkT-94" style="edgeStyle=none;curved=1;rounded=0;orthogonalLoop=1;jettySize=auto;html=1;fontSize=12;startSize=8;endSize=8;" edge="1" parent="1">
          <mxGeometry relative="1" as="geometry">
            <mxPoint x="17" y="-129" as="sourcePoint" />
            <mxPoint x="17" y="-47" as="targetPoint" />
          </mxGeometry>
        </mxCell>
        <mxCell id="n9ktirdGW9ZnqD2EBJkT-97" value="" style="endArrow=none;html=1;rounded=0;fontSize=12;startSize=8;endSize=8;curved=1;entryX=0.5;entryY=0;entryDx=0;entryDy=0;" edge="1" parent="1" target="n9ktirdGW9ZnqD2EBJkT-13">
          <mxGeometry width="50" height="50" relative="1" as="geometry">
            <mxPoint x="-102" y="173" as="sourcePoint" />
            <mxPoint x="-232" y="275" as="targetPoint" />
          </mxGeometry>
        </mxCell>
        <mxCell id="n9ktirdGW9ZnqD2EBJkT-98" value="False" style="edgeLabel;html=1;align=center;verticalAlign=middle;resizable=0;points=[];fontSize=12;" vertex="1" connectable="0" parent="n9ktirdGW9ZnqD2EBJkT-97">
          <mxGeometry x="0.2691" relative="1" as="geometry">
            <mxPoint y="1" as="offset" />
          </mxGeometry>
        </mxCell>
        <mxCell id="n9ktirdGW9ZnqD2EBJkT-102" value="" style="endArrow=none;html=1;rounded=0;fontSize=12;startSize=8;endSize=8;curved=1;" edge="1" parent="1">
          <mxGeometry width="50" height="50" relative="1" as="geometry">
            <mxPoint x="10" y="791" as="sourcePoint" />
            <mxPoint x="-55" y="791" as="targetPoint" />
          </mxGeometry>
        </mxCell>
        <mxCell id="n9ktirdGW9ZnqD2EBJkT-104" value="" style="endArrow=classic;html=1;rounded=0;fontSize=12;startSize=8;endSize=8;curved=1;entryX=1;entryY=0;entryDx=0;entryDy=0;" edge="1" parent="1">
          <mxGeometry width="50" height="50" relative="1" as="geometry">
            <mxPoint x="10" y="791" as="sourcePoint" />
            <mxPoint x="9.913611075680535" y="880.9963889243193" as="targetPoint" />
          </mxGeometry>
        </mxCell>
        <mxCell id="n9ktirdGW9ZnqD2EBJkT-106" value="" style="endArrow=none;html=1;rounded=0;fontSize=12;startSize=8;endSize=8;curved=1;" edge="1" parent="1">
          <mxGeometry width="50" height="50" relative="1" as="geometry">
            <mxPoint x="471" y="561" as="sourcePoint" />
            <mxPoint x="471" y="411" as="targetPoint" />
          </mxGeometry>
        </mxCell>
        <mxCell id="n9ktirdGW9ZnqD2EBJkT-116" value="" style="endArrow=none;html=1;rounded=0;fontSize=12;startSize=8;endSize=8;curved=1;entryX=1;entryY=0.5;entryDx=0;entryDy=0;" edge="1" parent="1">
          <mxGeometry width="50" height="50" relative="1" as="geometry">
            <mxPoint x="135" y="668" as="sourcePoint" />
            <mxPoint x="13" y="668" as="targetPoint" />
          </mxGeometry>
        </mxCell>
        <mxCell id="n9ktirdGW9ZnqD2EBJkT-117" value="" style="endArrow=none;html=1;rounded=0;fontSize=12;startSize=8;endSize=8;curved=1;" edge="1" parent="1">
          <mxGeometry width="50" height="50" relative="1" as="geometry">
            <mxPoint x="135.5" y="764" as="sourcePoint" />
            <mxPoint x="136" y="667" as="targetPoint" />
          </mxGeometry>
        </mxCell>
        <mxCell id="n9ktirdGW9ZnqD2EBJkT-118" value="" style="endArrow=none;html=1;rounded=0;fontSize=12;startSize=8;endSize=8;curved=1;" edge="1" parent="1">
          <mxGeometry width="50" height="50" relative="1" as="geometry">
            <mxPoint x="-117.5" y="764" as="sourcePoint" />
            <mxPoint x="-117" y="675" as="targetPoint" />
          </mxGeometry>
        </mxCell>
        <mxCell id="n9ktirdGW9ZnqD2EBJkT-120" value="" style="endArrow=none;html=1;rounded=0;fontSize=12;startSize=8;endSize=8;curved=1;entryX=0;entryY=0;entryDx=0;entryDy=0;" edge="1" parent="1" target="n9ktirdGW9ZnqD2EBJkT-7">
          <mxGeometry width="50" height="50" relative="1" as="geometry">
            <mxPoint x="-9" y="775" as="sourcePoint" />
            <mxPoint x="10" y="723" as="targetPoint" />
          </mxGeometry>
        </mxCell>
        <mxCell id="n9ktirdGW9ZnqD2EBJkT-121" value="" style="endArrow=none;html=1;rounded=0;fontSize=12;startSize=8;endSize=8;curved=1;" edge="1" parent="1">
          <mxGeometry width="50" height="50" relative="1" as="geometry">
            <mxPoint x="-10" y="774" as="sourcePoint" />
            <mxPoint x="-10" y="292" as="targetPoint" />
          </mxGeometry>
        </mxCell>
        <mxCell id="n9ktirdGW9ZnqD2EBJkT-122" value="" style="endArrow=classic;html=1;rounded=0;fontSize=12;startSize=8;endSize=8;curved=1;entryX=1;entryY=1;entryDx=0;entryDy=0;" edge="1" parent="1" target="n9ktirdGW9ZnqD2EBJkT-13">
          <mxGeometry width="50" height="50" relative="1" as="geometry">
            <mxPoint x="-9" y="291" as="sourcePoint" />
            <mxPoint x="-54" y="274" as="targetPoint" />
          </mxGeometry>
        </mxCell>
        <mxCell id="n9ktirdGW9ZnqD2EBJkT-131" value="" style="endArrow=none;html=1;rounded=0;fontSize=12;startSize=8;endSize=8;curved=1;" edge="1" parent="1">
          <mxGeometry width="50" height="50" relative="1" as="geometry">
            <mxPoint x="-103" y="577" as="sourcePoint" />
            <mxPoint x="-103.09" y="302" as="targetPoint" />
          </mxGeometry>
        </mxCell>
        <mxCell id="n9ktirdGW9ZnqD2EBJkT-132" value="True" style="edgeLabel;html=1;align=center;verticalAlign=middle;resizable=0;points=[];fontSize=12;" vertex="1" connectable="0" parent="n9ktirdGW9ZnqD2EBJkT-131">
          <mxGeometry x="0.6818" y="1" relative="1" as="geometry">
            <mxPoint y="-1" as="offset" />
          </mxGeometry>
        </mxCell>
        <mxCell id="n9ktirdGW9ZnqD2EBJkT-133" value="" style="endArrow=none;html=1;rounded=0;fontSize=12;startSize=8;endSize=8;curved=1;" edge="1" parent="1">
          <mxGeometry width="50" height="50" relative="1" as="geometry">
            <mxPoint x="-54" y="793" as="sourcePoint" />
            <mxPoint x="-54" y="575" as="targetPoint" />
          </mxGeometry>
        </mxCell>
        <mxCell id="n9ktirdGW9ZnqD2EBJkT-134" value="" style="endArrow=none;html=1;rounded=0;fontSize=12;startSize=8;endSize=8;curved=1;" edge="1" parent="1">
          <mxGeometry width="50" height="50" relative="1" as="geometry">
            <mxPoint x="-54" y="577" as="sourcePoint" />
            <mxPoint x="-103" y="577" as="targetPoint" />
          </mxGeometry>
        </mxCell>
      </root>
    </mxGraphModel>
  </diagram>
</mxfile>
